<svg xmlns="http://www.w3.org/2000/svg" width="256" height="256" viewBox="0 0 100 100"><path d="M27.16 82.40L0.07 82.40L0.07 17.60L25.09 17.60Q30.54 17.60 34.59 19.85Q38.64 22.10 40.89 25.90Q43.14 29.71 43.14 34.30L43.14 34.30Q43.14 39.52 40.35 43.59Q37.56 47.66 32.88 49.24L32.88 49.24L32.79 47.03Q39.09 48.83 42.69 53.33Q46.29 57.83 46.29 64.22L46.29 64.22Q46.29 69.84 43.90 73.92Q41.52 77.99 37.20 80.20Q32.88 82.40 27.16 82.40L27.16 82.40ZM6.73 51.49L6.73 76.06L25.54 76.06Q29.50 76.06 32.65 74.64Q35.80 73.22 37.63 70.61Q39.45 68 39.45 64.31L39.45 64.31Q39.45 60.71 37.78 57.83Q36.12 54.95 33.26 53.22Q30.40 51.49 26.76 51.49L26.76 51.49L6.73 51.49ZM6.73 23.86L6.73 45.23L25.05 45.23Q28.15 45.23 30.72 43.81Q33.28 42.40 34.79 39.92Q36.30 37.45 36.30 34.21L36.30 34.21Q36.30 29.62 33.13 26.74Q29.95 23.86 25.05 23.86L25.05 23.86L6.73 23.86ZM77.29 82.40L70.68 82.40L70.68 23.95L48.04 23.95L48.04 17.60L99.93 17.60L99.93 23.95L77.29 23.95L77.29 82.40Z" fill="#fff"></path></svg>